Coordinates
version=1
nRows=8
nColumns=63
inDegrees=yes

Units are S.I. units (second, meters, Newtons, ...)
If the header above contains a line with 'inDegrees', this indicates whether rotational values are in degrees (yes) or radians (no).

endheader
time	pelvis_tilt	pelvis_list	pelvis_rotation	pelvis_tx	pelvis_ty	pelvis_tz	hip_flexion_r	hip_adduction_r	hip_rotation_r	knee_angle_r	knee_angle_r_beta	ankle_angle_r	subtalar_angle_r	mtp_angle_r	hip_flexion_l	hip_adduction_l	hip_rotation_l	knee_angle_l	knee_angle_l_beta	ankle_angle_l	subtalar_angle_l	mtp_angle_l	L5_S1_Flex_Ext	L5_S1_Lat_Bending	L5_S1_axial_rotation	L4_L5_Flex_Ext	L4_L5_Lat_Bending	L4_L5_axial_rotation	L3_L4_Flex_Ext	L3_L4_Lat_Bending	L3_L4_axial_rotation	L2_L3_Flex_Ext	L2_L3_Lat_Bending	L2_L3_axial_rotation	L1_L2_Flex_Ext	L1_L2_Lat_Bending	L1_L2_axial_rotation	L1_T12_Flex_Ext	L1_T12_Lat_Bending	L1_T12_axial_rotation	Abs_r3	Abs_r2	Abs_r1	Abs_t1	Abs_t2	neck_flexion	neck_bending	neck_rotation	arm_flex_r	arm_add_r	arm_rot_r	elbow_flex_r	pro_sup_r	wrist_flex_r	wrist_dev_r	arm_flex_l	arm_add_l	arm_rot_l	elbow_flex_l	pro_sup_l	wrist_flex_l	wrist_dev_l
6.500000	-3.853723	-4.441223	86.933470	0.327994	0.967699	0.414405	2.309188	0.718159	4.915357	5.061111	0.088333	25.273015	-10.840728	0.000000	6.724455	0.348503	2.030190	13.459833	0.234918	28.264320	-7.897780	0.000000	0.119705	-0.580020	2.502869	0.222304	-0.771427	2.659298	0.196664	-1.410261	2.659298	0.136811	-1.410261	2.190010	0.111158	-1.182777	2.033581	0.068400	-0.898451	1.877152	0.855042	-6.561306	13.920205	0.000000	0.000000	18.000891	-1.767671	8.752792	12.265691	-18.812804	53.021859	109.778372	81.061496	25.417247	5.585098	30.232147	-48.874613	54.365872	113.310495	76.205495	43.488414	-6.962663
6.520833	-3.819283	-4.523433	86.736506	0.327390	0.968004	0.414416	2.351060	0.718527	5.142225	4.935549	0.086142	25.114411	-10.785714	0.000000	6.599478	0.317457	1.829532	13.056605	0.227881	28.234536	-7.679269	0.000000	0.123237	-0.565582	2.433429	0.228864	-0.752224	2.585518	0.202467	-1.375155	2.585518	0.140848	-1.375155	2.129250	0.114438	-1.153334	1.977161	0.070418	-0.876086	1.825072	0.880273	-6.397973	13.534002	0.000000	0.000000	19.510792	-1.761162	6.331790	13.628430	-19.509637	54.286933	108.994991	78.978356	23.008750	5.326921	29.784026	-48.644981	54.588579	112.538919	75.835621	41.185619	-5.971512
6.541667	-3.761034	-4.600011	86.530780	0.326693	0.968118	0.414474	2.384006	0.740992	5.429381	4.805072	0.083864	24.968960	-10.789086	0.000000	6.487669	0.271005	1.659963	12.692094	0.221519	28.252465	-7.506359	0.000000	0.126567	-0.547096	2.365518	0.235047	-0.727637	2.513363	0.207937	-1.330208	2.513363	0.144653	-1.330208	2.069828	0.117530	-1.115637	1.921984	0.072320	-0.847451	1.774139	0.904055	-6.188854	13.156303	0.000000	0.000000	20.980005	-1.875197	3.859809	14.592295	-20.395438	55.075854	108.148388	77.037555	20.470240	5.029164	29.248772	-48.229855	55.016225	111.619633	75.354063	38.493850	-5.069621
6.562500	-3.674507	-4.670408	86.303576	0.325885	0.968040	0.414562	2.415428	0.788104	5.761846	4.685781	0.081782	24.851370	-10.814606	0.000000	6.383572	0.207291	1.518513	12.363783	0.215789	28.294604	-7.405762	0.000000	0.132594	-0.523512	2.306090	0.246240	-0.696270	2.450220	0.217838	-1.272866	2.450220	0.151541	-1.272866	2.017829	0.123126	-1.067545	1.873698	0.075764	-0.810920	1.729567	0.947103	-5.922068	12.825780	0.000000	0.000000	22.337843	-2.124009	1.391088	15.221333	-21.473174	55.466012	107.271437	75.825055	17.877075	4.462830	28.536239	-47.637806	55.496602	110.593855	74.614731	35.169987	-4.287471
6.583333	-3.561164	-4.729669	86.047179	0.325001	0.967787	0.414731	2.450156	0.860904	6.140852	4.590367	0.080117	24.762015	-10.874938	0.000000	6.284336	0.125917	1.402565	12.074041	0.210732	28.349625	-7.378824	0.000000	0.140227	-0.494691	2.259764	0.260416	-0.657940	2.400999	0.230379	-1.202793	2.400999	0.160266	-1.202793	1.977293	0.130215	-1.008775	1.836058	0.080126	-0.766277	1.694823	1.001629	-5.596048	12.568128	0.000000	0.000000	23.551395	-2.486736	-0.966194	15.662220	-22.727316	55.662929	106.410159	75.228521	15.182706	3.842360	27.665358	-46.853360	55.967614	109.457273	73.354187	31.273701	-3.562020
6.604167	-3.430705	-4.773804	85.769784	0.324066	0.967405	0.414977	2.484527	0.949164	6.558511	4.520088	0.078890	24.694116	-10.979925	0.000000	6.183946	0.037013	1.323622	11.818064	0.206264	28.403805	-7.433989	0.000000	0.149131	-0.462080	2.223375	0.276952	-0.614566	2.362336	0.245008	-1.123501	2.362336	0.170442	-1.123501	1.945453	0.138483	-0.942273	1.806492	0.085214	-0.715761	1.667531	1.065230	-5.227138	12.365743	0.000000	0.000000	24.607191	-2.922516	-3.128902	16.039655	-24.091896	55.871249	105.551507	75.192500	12.372409	3.150412	26.731082	-45.867741	56.491413	108.171006	71.498651	27.128099	-2.900857
6.625000	-3.279233	-4.808462	85.481285	0.323106	0.966925	0.415283	2.526571	1.058258	6.957741	4.482849	0.078240	24.656679	-11.093898	0.000000	6.085298	-0.067433	1.266880	11.593995	0.202353	28.457863	-7.536546	0.000000	0.159925	-0.426062	2.195482	0.296997	-0.566663	2.332700	0.262741	-1.035928	2.332700	0.182778	-1.035928	1.921047	0.148506	-0.868827	1.783829	0.091381	-0.659971	1.646611	1.142329	-4.819704	12.210612	0.000000	0.000000	25.501023	-3.393326	-5.046157	16.375626	-25.529328	56.186764	104.734683	75.723696	9.388002	2.467050	25.837543	-44.696382	57.212552	106.802678	69.012704	22.776815	-2.099166
6.645833	-3.121802	-4.832826	85.186209	0.322165	0.966397	0.415630	2.574538	1.172692	7.333137	4.481332	0.078214	24.642721	-11.217489	0.000000	5.983158	-0.174025	1.229036	11.394066	0.198864	28.495921	-7.685665	0.000000	0.172059	-0.388831	2.170229	0.319530	-0.517146	2.305868	0.282675	-0.945404	2.305868	0.196646	-0.945404	1.898950	0.159774	-0.792905	1.763311	0.098314	-0.602300	1.627672	1.228997	-4.398537	12.070163	0.000000	0.000000	26.249447	-3.862448	-6.657684	16.668744	-26.950364	56.617832	103.919691	76.902192	6.426868	1.675207	25.073577	-43.342798	58.202379	105.311923	65.921396	18.742661	-1.032680
